<svg width="231" height="231" viewBox="0 0 231 231" fill="none" xmlns="http://www.w3.org/2000/svg">
<g opacity="0.05" clip-path="url(#clip0_37_144)">
<path d="M162.376 168.915C162.532 198.591 162.564 198.969 132.93 201.899C114.262 204.083 95.3541 202.758 77.1669 197.992C70.2513 196.071 66.4649 192.731 66.8404 184.919C67.3098 174.995 66.6214 165.009 67.0908 155.086C67.811 142.887 73.1222 131.422 81.9431 123.027C90.7641 114.631 102.432 109.935 114.571 109.895C126.71 109.855 138.408 114.473 147.283 122.811C156.159 131.148 161.545 142.577 162.345 154.771C162.626 159.465 162.376 164.19 162.376 168.915Z" fill="white"/>
<path d="M231 179.059C178.46 244.49 59.1738 250.223 0 180.981C76.2907 225.935 152.55 226.313 231 179.059Z" fill="white"/>
<path d="M50.4119 186.431C30.8855 179.5 17.555 167.529 5.28841 154.204C4.2456 152.515 3.55524 150.63 3.25935 148.664C2.96346 146.698 3.06823 144.692 3.56732 142.768C4.9713 137.718 7.90552 133.234 11.961 129.942C16.0165 126.649 20.9911 124.713 26.1917 124.402C31.4167 124.469 36.4835 126.217 40.6502 129.391C44.817 132.566 47.865 137 49.348 142.044C53.1031 156.251 51.4759 170.68 50.4119 186.431Z" fill="white"/>
<path d="M179.774 184.698C179.774 170.931 178.992 157.448 180.025 144.123C180.87 133.034 191.759 124.591 202.774 124.402C213.789 124.213 225.493 134.105 226.619 145.194C226.843 148.747 225.933 152.279 224.022 155.275C217.826 165.041 193.512 181.044 179.774 184.698Z" fill="white"/>
<path d="M225.805 95.2624C225.706 98.4003 224.985 101.487 223.685 104.341C222.386 107.194 220.533 109.759 218.237 111.883C215.94 114.007 213.246 115.648 210.312 116.711C207.377 117.773 204.261 118.235 201.147 118.07C194.86 117.906 188.887 115.273 184.502 110.735C180.116 106.197 177.668 100.113 177.678 93.7818C178.262 87.4641 181.137 81.5845 185.755 77.2666C190.374 72.9487 196.41 70.4954 202.712 70.3754C208.956 70.8638 214.791 73.6904 219.066 78.2976C223.341 82.9048 225.746 88.9579 225.805 95.2624Z" fill="white"/>
<path d="M27.9441 70.3439C34.1941 70.7339 40.0802 73.4365 44.4703 77.9318C48.8605 82.427 51.4448 88.3976 51.7262 94.6953C51.4983 100.999 48.8371 106.965 44.3082 111.324C39.7794 115.683 33.7402 118.092 27.4747 118.039C24.3586 118.144 21.2549 117.595 18.3609 116.427C15.4669 115.259 12.8461 113.498 10.6651 111.255C8.48414 109.012 6.79076 106.336 5.6927 103.399C4.59464 100.461 4.11593 97.3253 4.28704 94.1913C4.35204 87.8923 6.86437 81.8693 11.286 77.412C15.7077 72.9548 21.6872 70.4176 27.9441 70.3439Z" fill="white"/>
<path d="M116.126 98.2237C142.913 98.2237 164.629 76.3622 164.629 49.3947C164.629 22.4273 142.913 0.565796 116.126 0.565796C89.3383 0.565796 67.6227 22.4273 67.6227 49.3947C67.6227 76.3622 89.3383 98.2237 116.126 98.2237Z" fill="white"/>
</g>
<defs>
<clipPath id="clip0_37_144">
<rect width="231" height="230" fill="white" transform="translate(0 0.565796)"/>
</clipPath>
</defs>
</svg>
