<svg width="48" height="48" viewBox="0 0 48 48" fill="none" xmlns="http://www.w3.org/2000/svg">
<path d="M33.4958 34.8113C33.5277 40.8936 33.5341 40.9711 27.4866 41.5716C23.677 42.0192 19.8183 41.7477 16.1068 40.7709C14.6955 40.377 13.9228 39.6926 13.9994 38.0913C14.0952 36.0574 13.9547 34.0106 14.0505 31.9767C14.1975 29.4763 15.2814 27.1266 17.0815 25.4058C18.8816 23.685 21.2627 22.7225 23.74 22.7143C26.2173 22.7061 28.6045 23.6527 30.4158 25.3615C32.2271 27.0703 33.3262 29.4128 33.4894 31.9121C33.5469 32.8742 33.4958 33.8427 33.4958 34.8113Z" fill="#A1102A"/>
<path d="M47.5003 36.8904C36.7782 50.3012 12.4348 51.4764 0.358932 37.2842C15.928 46.4981 31.4906 46.5756 47.5003 36.8904Z" fill="#474747"/>
<path d="M10.6468 38.4011C6.66191 36.9806 3.94148 34.527 1.43818 31.7958C1.22537 31.4497 1.08448 31.0634 1.0241 30.6604C0.963712 30.2575 0.985094 29.8463 1.08695 29.452C1.37346 28.4168 1.97226 27.4977 2.79989 26.823C3.62751 26.1482 4.64271 25.7513 5.70401 25.6876C6.7703 25.7012 7.80431 26.0595 8.65464 26.7102C9.50498 27.3608 10.127 28.2696 10.4296 29.3035C11.196 32.2155 10.8639 35.1727 10.6468 38.4011Z" fill="#474747"/>
<path d="M37.0464 38.0461C37.0464 35.2244 36.8868 32.4609 37.0975 29.7297C37.2699 27.4569 39.4922 25.7264 41.7401 25.6877C43.988 25.6489 46.3763 27.6764 46.6062 29.9492C46.6519 30.6774 46.4662 31.4014 46.0762 32.0154C44.8118 34.017 39.8498 37.2971 37.0464 38.0461Z" fill="#474747"/>
<path d="M46.4402 19.7152C46.4198 20.3583 46.2727 20.9909 46.0075 21.5758C45.7423 22.1608 45.3643 22.6863 44.8956 23.1217C44.427 23.557 43.8771 23.8935 43.2783 24.1112C42.6794 24.329 42.0436 24.4237 41.408 24.3899C40.1251 24.3562 38.906 23.8167 38.0111 22.8865C37.1162 21.9564 36.6164 20.7093 36.6185 19.4117C36.7377 18.1168 37.3245 16.9117 38.267 16.0267C39.2094 15.1417 40.4414 14.6388 41.7273 14.6143C43.0016 14.7143 44.1924 15.2937 45.0649 16.238C45.9373 17.1823 46.428 18.423 46.4402 19.7152V19.7152Z" fill="#474747"/>
<path d="M6.06161 14.6078C7.33707 14.6877 8.53828 15.2417 9.4342 16.163C10.3301 17.0844 10.8575 18.3081 10.9149 19.5989C10.8684 20.8909 10.3253 22.1137 9.40112 23.0071C8.4769 23.9006 7.24446 24.3944 5.96581 24.3834C5.32989 24.405 4.6965 24.2925 4.10592 24.0531C3.51533 23.8138 2.98048 23.4527 2.5354 22.993C2.09032 22.5332 1.74474 21.9849 1.52065 21.3828C1.29657 20.7807 1.19887 20.138 1.23379 19.4956C1.24706 18.2046 1.75976 16.9701 2.66211 16.0565C3.56446 15.1429 4.78473 14.6229 6.06161 14.6078V14.6078Z" fill="#474747"/>
<path d="M24.0573 20.3221C29.524 20.3221 33.9556 15.8413 33.9556 10.314C33.9556 4.78668 29.524 0.305908 24.0573 0.305908C18.5907 0.305908 14.1591 4.78668 14.1591 10.314C14.1591 15.8413 18.5907 20.3221 24.0573 20.3221Z" fill="#A1102A"/>
</svg>
